<mxfile host="app.diagrams.net" modified="2024-02-01T04:59:19.565Z" agent="Mozilla/5.0 (X11; Linux x86_64) AppleWebKit/537.36 (KHTML, like Gecko) Chrome/117.0.0.0 Safari/537.36" etag="mKHQ5KCo5VXCFkQDQAwM" version="23.1.0" type="github">
  <diagram name="Page-1" id="58cdce13-f638-feb5-8d6f-7d28b1aa9fa0">
    <mxGraphModel dx="1050" dy="569" grid="1" gridSize="10" guides="1" tooltips="1" connect="1" arrows="1" fold="1" page="1" pageScale="1" pageWidth="1100" pageHeight="850" background="none" math="0" shadow="0">
      <root>
        <mxCell id="0" />
        <mxCell id="1" parent="0" />
        <mxCell id="382b91b5511bd0f7-1" value="" style="ellipse;html=1;shape=startState;rounded=1;shadow=0;comic=0;labelBackgroundColor=none;fontFamily=Verdana;fontSize=12;align=center;direction=south;" parent="1" vertex="1">
          <mxGeometry x="130" y="135" width="30" height="30" as="geometry" />
        </mxCell>
        <mxCell id="FuLLhX1Z4bMYEHbIj7ZK-2" style="edgeStyle=orthogonalEdgeStyle;rounded=0;orthogonalLoop=1;jettySize=auto;html=1;exitX=1;exitY=0.5;exitDx=0;exitDy=0;entryX=0;entryY=0.5;entryDx=0;entryDy=0;" edge="1" parent="1" source="382b91b5511bd0f7-6" target="FuLLhX1Z4bMYEHbIj7ZK-1">
          <mxGeometry relative="1" as="geometry" />
        </mxCell>
        <mxCell id="382b91b5511bd0f7-6" value="Login" style="rounded=1;whiteSpace=wrap;html=1;arcSize=24;shadow=0;comic=0;labelBackgroundColor=none;fontFamily=Verdana;fontSize=12;align=center;" parent="1" vertex="1">
          <mxGeometry x="240" y="120" width="120" height="60" as="geometry" />
        </mxCell>
        <mxCell id="2a3bc250acf0617d-9" style="edgeStyle=orthogonalEdgeStyle;html=1;labelBackgroundColor=none;endArrow=open;endSize=8;fontFamily=Verdana;fontSize=12;align=left;" parent="1" source="382b91b5511bd0f7-1" target="382b91b5511bd0f7-6" edge="1">
          <mxGeometry relative="1" as="geometry" />
        </mxCell>
        <mxCell id="FuLLhX1Z4bMYEHbIj7ZK-16" style="edgeStyle=orthogonalEdgeStyle;rounded=0;orthogonalLoop=1;jettySize=auto;html=1;exitX=0.25;exitY=0;exitDx=0;exitDy=0;entryX=0.75;entryY=0;entryDx=0;entryDy=0;" edge="1" parent="1" source="FuLLhX1Z4bMYEHbIj7ZK-1" target="382b91b5511bd0f7-6">
          <mxGeometry relative="1" as="geometry" />
        </mxCell>
        <mxCell id="FuLLhX1Z4bMYEHbIj7ZK-1" value="home" style="rounded=1;whiteSpace=wrap;html=1;arcSize=24;shadow=0;comic=0;labelBackgroundColor=none;fontFamily=Verdana;fontSize=12;align=center;" vertex="1" parent="1">
          <mxGeometry x="460" y="120" width="120" height="60" as="geometry" />
        </mxCell>
        <mxCell id="FuLLhX1Z4bMYEHbIj7ZK-3" value="" style="ellipse;html=1;shape=endState;" vertex="1" parent="1">
          <mxGeometry x="565" y="540" width="30" height="30" as="geometry" />
        </mxCell>
        <mxCell id="FuLLhX1Z4bMYEHbIj7ZK-4" value="open www.amizone.net" style="text;html=1;align=center;verticalAlign=middle;resizable=0;points=[];autosize=1;" vertex="1" parent="1">
          <mxGeometry x="65" y="98" width="150" height="30" as="geometry" />
        </mxCell>
        <mxCell id="FuLLhX1Z4bMYEHbIj7ZK-5" value="Log out" style="text;html=1;align=center;verticalAlign=middle;resizable=0;points=[];autosize=1;" vertex="1" parent="1">
          <mxGeometry x="605" y="540" width="60" height="30" as="geometry" />
        </mxCell>
        <mxCell id="FuLLhX1Z4bMYEHbIj7ZK-7" value="Exam schedule" style="rounded=1;whiteSpace=wrap;html=1;arcSize=24;shadow=0;comic=0;labelBackgroundColor=none;fontFamily=Verdana;fontSize=12;align=center;" vertex="1" parent="1">
          <mxGeometry x="460" y="360" width="120" height="60" as="geometry" />
        </mxCell>
        <mxCell id="FuLLhX1Z4bMYEHbIj7ZK-8" value="Time table" style="rounded=1;whiteSpace=wrap;html=1;arcSize=24;shadow=0;comic=0;labelBackgroundColor=none;fontFamily=Verdana;fontSize=12;align=center;" vertex="1" parent="1">
          <mxGeometry x="260" y="360" width="120" height="60" as="geometry" />
        </mxCell>
        <mxCell id="FuLLhX1Z4bMYEHbIj7ZK-10" value="My courses" style="rounded=1;whiteSpace=wrap;html=1;arcSize=24;shadow=0;comic=0;labelBackgroundColor=none;fontFamily=Verdana;fontSize=12;align=center;" vertex="1" parent="1">
          <mxGeometry x="840" y="365" width="120" height="60" as="geometry" />
        </mxCell>
        <mxCell id="FuLLhX1Z4bMYEHbIj7ZK-11" value="Exam Result" style="rounded=1;whiteSpace=wrap;html=1;arcSize=24;shadow=0;comic=0;labelBackgroundColor=none;fontFamily=Verdana;fontSize=12;align=center;" vertex="1" parent="1">
          <mxGeometry x="660" y="360" width="120" height="60" as="geometry" />
        </mxCell>
        <mxCell id="FuLLhX1Z4bMYEHbIj7ZK-19" value="Authenticate" style="text;html=1;align=center;verticalAlign=middle;resizable=0;points=[];autosize=1;" vertex="1" parent="1">
          <mxGeometry x="365" y="148" width="90" height="30" as="geometry" />
        </mxCell>
        <mxCell id="FuLLhX1Z4bMYEHbIj7ZK-22" style="edgeStyle=orthogonalEdgeStyle;rounded=0;orthogonalLoop=1;jettySize=auto;html=1;exitX=0;exitY=0.5;exitDx=0;exitDy=0;exitPerimeter=0;entryX=0.5;entryY=0;entryDx=0;entryDy=0;" edge="1" parent="1" source="FuLLhX1Z4bMYEHbIj7ZK-20" target="FuLLhX1Z4bMYEHbIj7ZK-8">
          <mxGeometry relative="1" as="geometry">
            <Array as="points">
              <mxPoint x="320" y="205" />
            </Array>
          </mxGeometry>
        </mxCell>
        <mxCell id="FuLLhX1Z4bMYEHbIj7ZK-23" style="edgeStyle=orthogonalEdgeStyle;rounded=0;orthogonalLoop=1;jettySize=auto;html=1;exitX=0.25;exitY=0.5;exitDx=0;exitDy=0;exitPerimeter=0;entryX=0.5;entryY=0;entryDx=0;entryDy=0;" edge="1" parent="1" source="FuLLhX1Z4bMYEHbIj7ZK-20" target="FuLLhX1Z4bMYEHbIj7ZK-7">
          <mxGeometry relative="1" as="geometry" />
        </mxCell>
        <mxCell id="FuLLhX1Z4bMYEHbIj7ZK-24" style="edgeStyle=orthogonalEdgeStyle;rounded=0;orthogonalLoop=1;jettySize=auto;html=1;exitX=0.75;exitY=0.5;exitDx=0;exitDy=0;exitPerimeter=0;entryX=0.5;entryY=0;entryDx=0;entryDy=0;" edge="1" parent="1" source="FuLLhX1Z4bMYEHbIj7ZK-20" target="FuLLhX1Z4bMYEHbIj7ZK-11">
          <mxGeometry relative="1" as="geometry">
            <Array as="points">
              <mxPoint x="580" y="230" />
              <mxPoint x="720" y="230" />
            </Array>
          </mxGeometry>
        </mxCell>
        <mxCell id="FuLLhX1Z4bMYEHbIj7ZK-25" style="edgeStyle=orthogonalEdgeStyle;rounded=0;orthogonalLoop=1;jettySize=auto;html=1;entryX=0.5;entryY=0;entryDx=0;entryDy=0;" edge="1" parent="1" source="FuLLhX1Z4bMYEHbIj7ZK-20" target="FuLLhX1Z4bMYEHbIj7ZK-10">
          <mxGeometry relative="1" as="geometry" />
        </mxCell>
        <mxCell id="FuLLhX1Z4bMYEHbIj7ZK-20" value="" style="shape=line;html=1;strokeWidth=6;" vertex="1" parent="1">
          <mxGeometry x="430" y="200" width="200" height="10" as="geometry" />
        </mxCell>
        <mxCell id="FuLLhX1Z4bMYEHbIj7ZK-28" style="edgeStyle=orthogonalEdgeStyle;rounded=0;orthogonalLoop=1;jettySize=auto;html=1;exitX=0.5;exitY=1;exitDx=0;exitDy=0;entryX=0.456;entryY=0.56;entryDx=0;entryDy=0;entryPerimeter=0;" edge="1" parent="1" source="FuLLhX1Z4bMYEHbIj7ZK-1" target="FuLLhX1Z4bMYEHbIj7ZK-20">
          <mxGeometry relative="1" as="geometry" />
        </mxCell>
        <mxCell id="FuLLhX1Z4bMYEHbIj7ZK-29" value="log out" style="text;html=1;align=center;verticalAlign=middle;resizable=0;points=[];autosize=1;" vertex="1" parent="1">
          <mxGeometry x="380" y="68" width="60" height="30" as="geometry" />
        </mxCell>
        <mxCell id="FuLLhX1Z4bMYEHbIj7ZK-33" value="" style="shape=line;html=1;strokeWidth=6;" vertex="1" parent="1">
          <mxGeometry x="480" y="460" width="200" height="10" as="geometry" />
        </mxCell>
        <mxCell id="FuLLhX1Z4bMYEHbIj7ZK-34" value="" style="edgeStyle=orthogonalEdgeStyle;html=1;verticalAlign=bottom;endArrow=open;endSize=8;rounded=0;" edge="1" source="FuLLhX1Z4bMYEHbIj7ZK-33" parent="1">
          <mxGeometry relative="1" as="geometry">
            <mxPoint x="580" y="540" as="targetPoint" />
          </mxGeometry>
        </mxCell>
        <mxCell id="FuLLhX1Z4bMYEHbIj7ZK-35" style="edgeStyle=orthogonalEdgeStyle;rounded=0;orthogonalLoop=1;jettySize=auto;html=1;exitX=0.5;exitY=1;exitDx=0;exitDy=0;entryX=0;entryY=0.5;entryDx=0;entryDy=0;entryPerimeter=0;" edge="1" parent="1" source="FuLLhX1Z4bMYEHbIj7ZK-8" target="FuLLhX1Z4bMYEHbIj7ZK-33">
          <mxGeometry relative="1" as="geometry" />
        </mxCell>
        <mxCell id="FuLLhX1Z4bMYEHbIj7ZK-36" style="edgeStyle=orthogonalEdgeStyle;rounded=0;orthogonalLoop=1;jettySize=auto;html=1;exitX=0.5;exitY=1;exitDx=0;exitDy=0;entryX=0.25;entryY=0.5;entryDx=0;entryDy=0;entryPerimeter=0;" edge="1" parent="1" source="FuLLhX1Z4bMYEHbIj7ZK-7" target="FuLLhX1Z4bMYEHbIj7ZK-33">
          <mxGeometry relative="1" as="geometry" />
        </mxCell>
        <mxCell id="FuLLhX1Z4bMYEHbIj7ZK-37" style="edgeStyle=orthogonalEdgeStyle;rounded=0;orthogonalLoop=1;jettySize=auto;html=1;exitX=0.25;exitY=1;exitDx=0;exitDy=0;entryX=0.75;entryY=0.5;entryDx=0;entryDy=0;entryPerimeter=0;" edge="1" parent="1" source="FuLLhX1Z4bMYEHbIj7ZK-11" target="FuLLhX1Z4bMYEHbIj7ZK-33">
          <mxGeometry relative="1" as="geometry" />
        </mxCell>
        <mxCell id="FuLLhX1Z4bMYEHbIj7ZK-38" style="edgeStyle=orthogonalEdgeStyle;rounded=0;orthogonalLoop=1;jettySize=auto;html=1;exitX=0.25;exitY=1;exitDx=0;exitDy=0;entryX=1;entryY=0.5;entryDx=0;entryDy=0;entryPerimeter=0;" edge="1" parent="1" source="FuLLhX1Z4bMYEHbIj7ZK-10" target="FuLLhX1Z4bMYEHbIj7ZK-33">
          <mxGeometry relative="1" as="geometry" />
        </mxCell>
        <mxCell id="FuLLhX1Z4bMYEHbIj7ZK-39" value="&lt;h1&gt;&lt;span style=&quot;background-color: initial;&quot;&gt;Amizone&lt;/span&gt;&lt;br&gt;&lt;/h1&gt;&lt;div&gt;&lt;span style=&quot;background-color: initial;&quot;&gt;State diagram for Amity&#39;s student portal - Amizone.&lt;/span&gt;&lt;/div&gt;" style="text;html=1;spacing=5;spacingTop=-20;whiteSpace=wrap;overflow=hidden;rounded=0;" vertex="1" parent="1">
          <mxGeometry x="750" y="28" width="190" height="120" as="geometry" />
        </mxCell>
      </root>
    </mxGraphModel>
  </diagram>
</mxfile>
